<?xml version="1.0" standalone="no"?>
<!DOCTYPE svg PUBLIC "-//W3C//DTD SVG 1.1//EN" "http://www.w3.org/Graphics/SVG/1.1/DTD/svg11.dtd" >
<svg xmlns="http://www.w3.org/2000/svg" xmlns:xlink="http://www.w3.org/1999/xlink" version="1.1">
<metadata></metadata>
<defs>
<font id="homizio_novaitalic" horiz-adv-x="599" >
<font-face units-per-em="1000" ascent="800" descent="-200" />
<missing-glyph horiz-adv-x="273" />
<glyph unicode="AE" horiz-adv-x="774" d="M224 212q-28 -39 -81.5 -116t-66.5 -96h-74l489 700h397l-13 -65h-272l-54 -252h252l-13 -62h-252l-56 -259h288l-13 -62h-353l45 212h-223zM537 635h-21q-30 -44 -250 -361h194z" />
<glyph unicode="ae" horiz-adv-x="891" d="M477 206q-50 37 -110 37q-87 0 -135 -64q-28 -38 -20 -80q11 -53 80 -53q64 0 113 34v-1q24 15 38 29q13 14 18 24zM424 454q-82 0 -163 -61l-31 41q92 78 210 78q78 0 104 -38q14 -22 24 -55q80 93 200 93q70 0 108.5 -37t43.5 -106q3 -45 -9 -101l-6 -29h-356 q-15 -86 15 -139.5t106 -53.5q77 0 159 57l19 -50q-104 -65 -199 -65q-127 0 -162 100q-56 -51 -108 -76q-51 -24 -104 -24q-52 0 -86.5 23t-42.5 65q-6 26 2 58q37 117 155 153q36 11 71 11q69 0 117 -32q2 10 5.5 29t5.5 28q22 131 -78 131zM754 454q-94 0 -155 -90 q-22 -34 -34 -67h289q11 73 -13.5 115t-86.5 42z" />
<glyph unicode="OE" horiz-adv-x="856" d="M493 0q-90 -12 -138 -12q-116 0 -185 55t-83 157q-10 75 10 153.5t54 140.5q76 137 216 191q66 26 150 26q74 0 125 -11h326l-13 -62h-271l-54 -254h252l-13 -62h-252l-56 -260h287l-13 -62h-342zM618 639q-58 11 -118 11q-123 0 -217 -85q-90 -82 -119 -217 q-29 -136 23 -215q54 -83 180 -83q62 0 129 13z" />
<glyph unicode="oe" horiz-adv-x="900" d="M378 512q70 0 114 -33t59 -92q42 58 99 92q56 33 121 33q70 0 108 -37t43 -105q3 -45 -9 -102l-6 -29h-356q-10 -64 5 -111t54 -68q26 -14 62 -14q78 0 175 65l14 -53q-119 -70 -208 -70q-131 0 -162 124q-87 -124 -229 -124q-108 0 -157.5 72t-24.5 187q19 91 69 155 t127 92q48 18 102 18zM755 454q-70 0 -117 -44t-71 -113h288q11 73 -13.5 115t-86.5 42zM364 454q-80 0 -140 -55q-59 -54 -80 -153q-19 -88 15 -144t117 -56q125 0 185 118q18 34 29 86q21 97 -10.5 150.5t-115.5 53.5z" />
<glyph unicode="&#xfb01;" horiz-adv-x="417" d="M392 739q34 0 76 -24l-38 -53q-22 19 -52 19q-79 0 -103 -111l-15 -70h240l-106 -500h-62l94 442h-178l-94 -442h-62l94 442h-86l12 58h86l16 74q26 119 120 154q30 11 58 11z" />
<glyph unicode="&#xfb02;" horiz-adv-x="545" d="M472 633q-7 48 -88 48q-79 0 -103 -111l-15 -70h127l-12 -58h-128l-93 -442h-62l93 442h-86l12 58h87l15 74q26 119 120 154q30 11 59 11q142 0 136 -104l-106 -502q-11 -41 -2 -63t43 -22q27 0 73 24l-14 -62q-40 -19 -77 -19q-117 0 -87 137z" />
<glyph horiz-adv-x="0" />
<glyph unicode="&#xd;" horiz-adv-x="97" />
<glyph unicode=" "  horiz-adv-x="273" />
<glyph unicode="&#x09;" horiz-adv-x="273" />
<glyph unicode="&#xa0;" horiz-adv-x="273" />
<glyph unicode="!" horiz-adv-x="107" d="M122 189h-60l107 504h64zM51 -8q-20 0 -30 13.5t-6 33.5t19.5 33.5t36.5 13.5q20 0 31 -13t7 -34q-4 -19 -20.5 -33t-37.5 -14z" />
<glyph unicode="&#x22;" horiz-adv-x="243" d="M303 463h-54l48 230h59zM191 463h-59l49 230h59z" />
<glyph unicode="#" horiz-adv-x="554" d="M460 500q13 30 41 96t41 97h58l-83 -193h129l-25 -56h-127q-12 -26 -32 -73.5t-30 -69.5h133l-24 -56h-132q-7 -17 -36.5 -85t-43.5 -102h-58l80 187h-106q-7 -17 -36.5 -85t-43.5 -102h-58l81 187h-133l25 56h130q11 24 31.5 71t31.5 72h-137l25 56h135q13 30 41.5 96 t41.5 97h57l-82 -193h106zM331 444q-12 -26 -33 -74t-30 -69h106q11 24 31.5 71t31.5 72h-106z" />
<glyph unicode="$" horiz-adv-x="383" d="M195 -98h-55l21 98q-87 5 -145 42l15 70q69 -52 142 -54l57 267q-42 27 -67 49q-49 41 -51 88q-5 94 71 164q55 50 125 64l18 87h55l-18 -84q70 -2 118 -24l-15 -71q-50 34 -115 35l-58 -269q32 -21 63 -46q69 -58 51 -141q-21 -103 -122 -152q-35 -17 -68 -22zM295 630 q-44 -10 -74.5 -39t-39.5 -72q-9 -44 8.5 -71t55.5 -53zM229 62q92 20 112 106q7 32 -2.5 57t-22 36.5t-38.5 30.5z" />
<glyph unicode="%" horiz-adv-x="757" d="M260 343q-76 0 -110 49t-17 130q28 131 137 172q34 12 72 12q77 0 109.5 -50t14.5 -133q-12 -59 -47 -102t-87 -64q-36 -14 -72 -14zM329 648q-55 0 -89 -35.5t-45 -91.5q-12 -53 8 -87.5t70 -34.5q73 0 113 74q14 26 19 51q12 58 -7.5 91t-68.5 33zM190 -16h-68l567 708 h67zM553 -12q-76 0 -110 50t-17 130q13 63 48.5 108t89.5 64q34 12 71 12q76 0 109 -50.5t15 -132.5q-12 -58 -47.5 -102t-86.5 -65q-36 -14 -72 -14zM622 294q-75 0 -115 -74q-16 -30 -21 -69t11 -73q21 -34 69 -34q76 0 114 74q12 22 18 52q13 59 -6 91.5t-70 32.5z" />
<glyph unicode="&#x26;" horiz-adv-x="655" d="M663 375q-31 -132 -128 -242q19 -24 58 -69.5t55 -64.5l-95 1l-69 84q-115 -96 -246 -96q-101 0 -150 54q-48 53 -29 137q13 66 62 116t132 86q-24 39 -35 82q-18 75 25 141q40 62 110 87q33 13 73 13q67 0 102 -38t21 -107q-17 -74 -66 -117.5t-131 -78.5 q90 -118 149 -186q69 82 98 198h64zM254 46q99 0 197 80q-64 78 -101 125q-39 49 -64 85q-71 -31 -110 -68q-40 -37 -51 -86q-10 -48 8.5 -80t56.5 -46q26 -10 64 -10zM409 646q-73 0 -113 -66q-24 -42 -18 -81.5t40 -91.5q83 35 120 68q36 33 45 78q9 42 -12 67.5t-62 25.5 z" />
<glyph unicode="'" horiz-adv-x="113" d="M186 463h-60l49 230h59z" />
<glyph unicode="(" horiz-adv-x="225" d="M122 -153q-111 174 -59 419q54 256 241 427h71q-196 -180 -249 -426q-50 -231 66 -420h-70z" />
<glyph unicode=")" horiz-adv-x="225" d="M-36 -153q194 188 244 420q53 245 -67 426h70q113 -168 59 -427q-52 -247 -236 -419h-70z" />
<glyph unicode="*" horiz-adv-x="361" d="M277 467q-8 -9 -48.5 -56.5t-59.5 -70.5l-43 35l117 123q-56 16 -127 34l30 59l123 -47l31 149h56l-31 -149q65 24 133 47l6 -59l-141 -34q10 -20 33 -61.5t33 -61.5l-59 -35z" />
<glyph unicode="+" horiz-adv-x="447" d="M304 261l-41 -194h-58l41 194h-194l12 58h194l42 194h58l-42 -194h194l-12 -58h-194z" />
<glyph unicode="," horiz-adv-x="138" d="M29 -117h-56l127 242h68z" />
<glyph unicode="-" horiz-adv-x="345" d="M86 261l14 61h275l-13 -61h-276z" />
<glyph unicode="." horiz-adv-x="135" d="M64 -8q-19 0 -29.5 13.5t-6.5 33.5t19.5 33.5t36.5 13.5q20 0 31.5 -13.5t7.5 -33.5q-4 -19 -21 -33t-38 -14z" />
<glyph unicode="/" horiz-adv-x="389" d="M31 -112h-63l504 805h66z" />
<glyph unicode="0" horiz-adv-x="481" d="M228 -12q-59 0 -95.5 31.5t-47 84.5t-8.5 109.5t16 118.5q39 185 117 278q79 94 185 94q203 0 128 -355q-38 -177 -114 -268q-77 -93 -181 -93zM378 646q-73 0 -130 -77q-57 -76 -90 -232q-14 -66 -16 -123q-3 -109 44 -148q25 -20 60 -20t67 20q64 40 108 151 q23 62 37 126q64 303 -80 303z" />
<glyph unicode="1" horiz-adv-x="255" d="M158 0l135 637q-29 -9 -89 -28.5t-89 -29.5l14 63l244 78l-153 -720h-62z" />
<glyph unicode="2" horiz-adv-x="445" d="M369 646q-84 0 -195 -82l16 77q97 63 197 63q85 0 127.5 -47.5t23.5 -133.5q-12 -61 -43 -104t-87 -98q-52 -50 -113 -102l-186 -161h327l-13 -58h-403l12 60l229 197q57 51 99 90q35 34 52 52.5t35 50t26 67.5q14 64 -13.5 96.5t-90.5 32.5z" />
<glyph unicode="3" horiz-adv-x="417" d="M172 46q117 0 171 84q17 26 23 58q16 75 -30.5 108.5t-133.5 33.5h-61l12 58h55q177 0 205 137q13 59 -14 90t-86 31q-61 0 -153 -52l15 69q94 41 158 41q79 0 121.5 -43.5t25.5 -123.5q-27 -128 -145 -173q55 -15 82.5 -59t13.5 -111q-15 -70 -61.5 -119.5t-115.5 -71.5 q-45 -15 -96 -15q-77 0 -145 40l15 71q79 -53 144 -53z" />
<glyph unicode="4" horiz-adv-x="479" d="M410 191l-40 -191h-62l40 191h-310l9 48l412 454h58l-95 -444h90l-12 -58h-90zM360 249l72 336l-305 -336h233z" />
<glyph unicode="5" horiz-adv-x="401" d="M167 46q120 0 175 93q16 25 24 65q33 155 -144 155q-74 0 -115 -26l77 360h322l-12 -59h-261l-46 -219q29 2 63 2q168 0 186 -120q7 -45 -5.5 -93t-33.5 -84q-77 -132 -247 -132q-76 0 -128 29l15 72q69 -43 130 -43z" />
<glyph unicode="6" horiz-adv-x="461" d="M428 646q-87 0 -161 -82q-72 -81 -107 -212q72 88 178 88q86 0 126 -61.5t21 -155.5q-22 -102 -95 -168q-74 -67 -165 -67q-77 0 -114.5 48.5t-39.5 132.5q-2 64 14 136q40 184 133 290q96 109 223 109q57 0 104 -19l-15 -68q-53 29 -102 29zM316 382q-62 0 -114 -48 q-78 -71 -69 -174q6 -69 53 -99q22 -15 55 -15q60 0 112 48q49 46 66 120q15 73 -11 120.5t-92 47.5z" />
<glyph unicode="7" horiz-adv-x="433" d="M151 0h-68l396 634h-345l12 59h425l-5 -24z" />
<glyph unicode="8" horiz-adv-x="464" d="M386 704q57 0 95 -25.5t48 -71.5q6 -29 -2 -65q-24 -115 -161 -178q133 -60 106 -189q-28 -130 -164 -173q-45 -14 -97 -14q-83 0 -128 47.5t-26 132.5q27 127 181 193q-51 31 -73 74q-17 44 -10 87.5t30 77.5q40 62 121 91q36 13 80 13zM238 46q100 0 149 75 q13 20 20 48q12 58 -17 96t-98 63q-73 -27 -115.5 -61.5t-56.5 -96.5q-9 -43 8.5 -72t52.5 -42q27 -10 57 -10zM367 646q-80 0 -126 -65q-15 -22 -19 -43q-20 -93 87 -144q134 51 153 143q11 51 -16 80t-79 29z" />
<glyph unicode="9" horiz-adv-x="461" d="M168 46q97 0 165 74q69 75 106 218q-70 -82 -175 -82q-87 0 -128 60.5t-21 155.5q22 102 96 168q73 64 166 64q148 0 153 -177q2 -72 -19.5 -157.5t-50.5 -150.5q-69 -152 -181 -204q-57 -27 -124 -27q-52 0 -103 20l14 69q59 -31 102 -31zM358 646q-61 0 -112 -47 q-50 -47 -65 -118q-16 -73 11.5 -120t94.5 -47q55 0 109 44q53 45 63 100q13 57 0.5 105t-47.5 69q-23 14 -54 14z" />
<glyph unicode=":" horiz-adv-x="123" d="M149 414q-20 0 -30.5 14t-6.5 34q4 19 20 32.5t37 13.5q20 0 31 -13t7 -33q-4 -19 -20.5 -33.5t-37.5 -14.5zM59 -8q-20 0 -30.5 13.5t-6.5 33.5q4 19 20 33t37 14q20 0 31 -13t7 -34q-4 -19 -20.5 -33t-37.5 -14z" />
<glyph unicode=";" horiz-adv-x="143" d="M184 414q-20 0 -30.5 13.5t-6.5 34.5q4 19 20 32.5t37 13.5q20 0 30.5 -13t6.5 -33q-4 -19 -20 -33.5t-37 -14.5zM25 -117h-55l127 242h69z" />
<glyph unicode="&#x3c;" horiz-adv-x="444" d="M156 287q45 -25 138.5 -76t139.5 -76l-15 -67l-365 208l4 19l459 231l-14 -66z" />
<glyph unicode="=" horiz-adv-x="488" d="M108 353l12 58h445l-12 -58h-445zM69 170l13 59h444l-12 -59h-445z" />
<glyph unicode="&#x3e;" horiz-adv-x="443" d="M400 287q-45 28 -136 86.5t-136 86.5l14 66l361 -231l-4 -19l-455 -208l15 67z" />
<glyph unicode="?" horiz-adv-x="368" d="M321 643q-89 0 -151 -62l-46 30q77 90 211 93q56 0 93 -23.5t47 -67.5q14 -58 -19 -118q-12 -22 -33 -45t-36 -36.5t-45 -37.5t-39 -32q-17 -15 -25.5 -23t-17.5 -22.5t-13 -32.5q-7 -35 -2 -79h-57q-21 106 76 189q10 9 43 34.5t53 45.5t34 44q10 20 15 42q11 47 -14 74 t-74 27zM169 -8q-19 0 -29.5 13.5t-6.5 33.5t19.5 33.5t36.5 13.5t32 -13t7 -34q-5 -20 -21 -33.5t-38 -13.5z" />
<glyph unicode="@" horiz-adv-x="830" d="M608 485q10 30 12 38h60l-86 -285q-20 -92 43 -92q55 0 102 57q38 45 60.5 120t9.5 147q-15 87 -81.5 131.5t-173.5 44.5q-145 0 -259 -101q-113 -99 -143 -246q-24 -112 10 -192t115 -114q53 -23 130 -23q114 0 211 44l27 -44q-138 -58 -255 -58q-173 0 -256 107 t-46 280q36 171 175 288q138 117 308 117q168 0 250 -100q82 -99 49 -252q-24 -112 -94 -189q-69 -75 -149 -75q-98 0 -98 90q-65 -90 -153 -90q-72 0 -101 51.5t-12 131.5q18 82 62 145t109 94q43 20 88 20q59 0 86 -45zM508 472q-63 0 -112 -55q-48 -54 -68 -142 q-12 -57 3.5 -93t61.5 -36q59 0 109 64q47 60 68 159q11 49 -4.5 76t-57.5 27z" />
<glyph unicode="A" d="M199 212q-56 -96 -123 -212h-73l413 700h58l113 -700h-73l-33 212h-282zM424 576h1q-1 4 -2 11.5t-1 11.5q-43 -75 -187 -325h236z" />
<glyph unicode="B" horiz-adv-x="462" d="M369 700q80 0 123.5 -43.5t26.5 -123.5q-25 -113 -133 -162q56 -14 82.5 -57.5t12.5 -109.5q-19 -90 -89 -147q-71 -57 -168 -57h-192l148 700h189zM267 394q107 0 159 76q17 25 23 55q24 113 -112 113h-104l-52 -244h86zM259 332h-91l-58 -270h118q155 0 185 138 q14 66 -24.5 99t-129.5 33z" />
<glyph unicode="C" horiz-adv-x="582" d="M646 589q-61 61 -159 61q-115 0 -206 -84q-92 -84 -120 -218t24 -216t169 -82q98 0 181 55l21 -53q-101 -64 -214 -64q-148 0 -216 99t-34 256q26 124 95 212.5t175 129.5q66 26 147 26q109 0 184 -67z" />
<glyph unicode="D" horiz-adv-x="595" d="M361 700q264 0 292 -193q10 -73 -10 -153.5t-54 -139.5q-79 -134 -227 -187q-74 -27 -159 -27h-170l148 700h180zM209 62q223 0 320 169q32 57 47 127q60 280 -235 280h-107l-123 -576h98z" />
<glyph unicode="E" horiz-adv-x="383" d="M31 0l148 700h338l-14 -62h-271l-54 -254h252l-13 -62h-252l-56 -260h287l-12 -62h-353z" />
<glyph unicode="F" horiz-adv-x="365" d="M231 638l-55 -259h252l-12 -62h-252l-68 -317h-66l149 700h337l-13 -62h-272z" />
<glyph unicode="G" horiz-adv-x="597" d="M647 590q-73 59 -159 59q-109 0 -201 -81q-97 -85 -126 -220t24 -216q54 -82 169 -82q93 0 166 46l42 200h-160l13 62h227l-62 -289q-65 -44 -124 -63q-57 -18 -114 -18q-148 0 -216 99t-34 256q26 124 95 212.5t175 129.5q66 26 147 26q109 0 184 -67z" />
<glyph unicode="H" horiz-adv-x="573" d="M468 0l70 327h-371l-69 -327h-67l149 700h66l-66 -311h371l66 311h66l-149 -700h-66z" />
<glyph unicode="I" horiz-adv-x="126" d="M242 700l-148 -700h-66l148 700h66z" />
<glyph unicode="J" horiz-adv-x="268" d="M34 -110q-26 0 -66 11l37 60q24 -9 44 -9q61 0 97 47q37 48 58 148l117 553h66l-117 -554q-54 -256 -236 -256z" />
<glyph unicode="K" horiz-adv-x="486" d="M180 395q192 173 341 305h86l-379 -340q42 -60 125.5 -180t124.5 -180h-92l-221 325l-69 -325h-66l149 700h66z" />
<glyph unicode="L" horiz-adv-x="366" d="M29 0l149 700h66l-136 -638h273l-12 -62h-340z" />
<glyph unicode="M" horiz-adv-x="727" d="M737 543q-218 -325 -363 -543h-27l-136 552l-117 -552h-62l148 700h59l139 -554q2 -6 4 -18l3 -18q2 3 9.5 17t12.5 22l370 551h57l-148 -700h-64z" />
<glyph unicode="N" horiz-adv-x="603" d="M517 0l-291 554q-8 12 -9 17l-121 -571h-66l149 700h50l289 -550q1 -3 4 -8t4 -9q1 4 2 7t1 6q1 2 1 6t1 6l115 542h66l-148 -700h-47z" />
<glyph unicode="O" horiz-adv-x="706" d="M343 -12q-148 0 -216 99t-34 256q26 124 95 212.5t175 129.5q66 26 147 26q142 0 209 -97q67 -98 33 -254q-37 -172 -147 -272q-111 -100 -262 -100zM488 650q-115 0 -206 -84q-92 -84 -120 -218q-29 -135 24 -216q54 -82 169 -82q122 0 210 81q89 81 119 222 q29 137 -24 218q-53 79 -172 79z" />
<glyph unicode="P" horiz-adv-x="431" d="M351 700q225 0 183 -200q-16 -77 -64.5 -131t-120.5 -79q-51 -17 -108 -17h-89l-57 -273h-66l148 700h174zM253 335q178 0 213 159q30 144 -136 144h-100l-64 -303h87z" />
<glyph unicode="Q" horiz-adv-x="694" d="M343 -12q-148 0 -216 99t-34 256q26 124 95 212.5t175 129.5q66 26 147 26q142 0 209 -97q67 -98 33 -254q-44 -207 -193 -307q64 -58 74 -68l-48 -41l-83 77q-74 -33 -159 -33zM488 650q-115 0 -206 -84q-92 -84 -120 -218q-29 -135 24 -216q54 -82 169 -82q52 0 100 15 l-39 36l47 42l53 -50q129 74 168 260q29 137 -24 218q-53 79 -172 79z" />
<glyph unicode="R" horiz-adv-x="472" d="M375 700q89 0 136 -48.5t28 -137.5q-23 -113 -126 -168q-30 -16 -72 -26q19 -53 57.5 -160t57.5 -160h-75l-107 304h-115l-64 -304h-67l149 700h198zM279 365q114 0 167 83q16 26 24 61q14 65 -19 97t-103 32h-118l-58 -273h107z" />
<glyph unicode="S" horiz-adv-x="415" d="M188 51q153 0 177 116q9 41 -4 65.5t-44 49.5q-22 18 -62 44q-40 27 -74 57q-29 26 -38 47q-17 46 -9 90t32 80q45 67 132 97q39 14 91 14q88 -3 150 -62l-52 -50q-53 51 -117 51q-99 0 -146 -69q-29 -42 -23 -89q1 -18 14 -35q12 -17 36 -36q28 -23 62 -45 q40 -27 69 -53q34 -31 48 -64.5t4 -83.5q-28 -132 -164 -172q-47 -14 -103 -14q-86 3 -149 63l51 50q52 -51 119 -51z" />
<glyph unicode="T" horiz-adv-x="461" d="M396 638l-135 -638h-66l135 638h-196l13 62h458l-13 -62h-196z" />
<glyph unicode="U" horiz-adv-x="549" d="M262 -12q-239 0 -179 283l90 429h66l-90 -422q-48 -228 135 -228q177 0 225 221l91 429h65l-89 -418q-63 -294 -314 -294z" />
<glyph unicode="V" horiz-adv-x="588" d="M307 0h-48l-108 700h73l82 -554q0 -5 1 -16t2 -16q2 4 8.5 14.5t9.5 17.5l329 554h71z" />
<glyph unicode="W" horiz-adv-x="888" d="M656 121q38 78 135 275.5t148 303.5h71l-353 -700h-53l-44 519q-2 13 -1 21l-10 -20q-45 -84 -137 -260t-137 -260h-53l-59 700h72l40 -552q0 -3 0.5 -7.5t0.5 -6.5v-12q10 19 231 443q13 24 36.5 69t34.5 66h38l39 -553v-13q0 -8 1 -13z" />
<glyph unicode="X" horiz-adv-x="549" d="M451 0l-104 265q-4 8 -12 33q-4 -7 -26 -33q-197 -238 -219 -265h-79l297 354q-118 301 -135 346h78l101 -261q4 -14 10 -31l8 10t9 11t8 10l210 261h76l-283 -346q112 -286 140 -354h-79z" />
<glyph unicode="Y" horiz-adv-x="508" d="M319 335q23 32 117.5 163.5t144.5 201.5h72l-319 -434l-56 -266h-65l56 265q-20 72 -61 217.5t-61 217.5h74l91 -333q1 -4 3.5 -15t3.5 -17z" />
<glyph unicode="Z" horiz-adv-x="519" d="M115 62h399l-13 -62h-497l5 27l534 611h-371l13 62h471l-5 -25z" />
<glyph unicode="[" horiz-adv-x="190" d="M-6 -153l179 846h168l-12 -59h-106l-156 -729h106l-12 -58h-167z" />
<glyph unicode="\" horiz-adv-x="389" d="M303 -112l-165 805h66l163 -805h-64z" />
<glyph unicode="]" horiz-adv-x="191" d="M-39 -153l12 58h105l155 729h-105l12 59h168l-180 -846h-167z" />
<glyph unicode="^" horiz-adv-x="420" d="M335 608q-15 -20 -88 -122.5t-111 -155.5h-66l270 374h31l111 -374h-66z" />
<glyph unicode="_" horiz-adv-x="484" d="M1 -126l13 61h419l-13 -61h-419z" />
<glyph unicode="`" horiz-adv-x="175" d="M236 558l-94 173h73l86 -173h-65z" />
<glyph unicode="a" horiz-adv-x="427" d="M308 298q48 0 85 -6q35 162 -73 162q-82 0 -162 -61l-31 41q91 78 210 78q82 0 113.5 -49t11.5 -141l-68 -322h-62l11 55q-52 -44 -126 -61q-24 -6 -46 -6q-52 0 -86 23t-42 65q-6 25 2 57q19 83 88 124t175 41zM380 236q-31 7 -78 7q-114 0 -166 -55q-37 -39 -27 -89 q11 -53 80 -53q64 0 113 34v-1q24 16 37 29q15 15 19 24z" />
<glyph unicode="b" horiz-adv-x="478" d="M229 -12q-99 0 -135 76l-14 -64h-62l155 731h62l-65 -305q54 55 121 76q27 9 56 9q93 0 141 -76q47 -73 24 -186q-25 -121 -105 -193q-75 -68 -178 -68zM109 138q24 -44 54.5 -68t82.5 -24q71 0 125 52q57 56 77 150q14 62 -5 112.5t-60 75.5q-25 15 -59 17 q-37 -3 -70.5 -19.5t-50.5 -31.5t-47 -46z" />
<glyph unicode="c" horiz-adv-x="430" d="M410 36q-75 -48 -157 -48q-109 0 -158 71.5t-24 187.5q40 188 196 247q48 18 103 18q81 0 133 -46l-44 -49q-42 37 -104 37q-80 0 -140 -55q-59 -54 -80 -153q-19 -88 15 -144t117 -56q65 0 124 41z" />
<glyph unicode="d" horiz-adv-x="478" d="M329 511q102 0 140 -85l65 305h62l-156 -731h-62l14 64q-70 -76 -169 -76q-106 0 -151 72.5t-20 188.5q23 109 103 186q80 76 174 76zM454 356q-17 30 -30.5 47t-38.5 32t-58 18q-68 -3 -130 -61q-63 -60 -82 -144q-18 -88 11 -145t106 -57q48 0 98 28q38 22 78 64z" />
<glyph unicode="e" horiz-adv-x="464" d="M254 46q77 0 159 57l19 -50q-106 -65 -200 -65q-104 0 -144.5 74.5t-15.5 190.5q23 108 102 183q82 76 178 76q70 0 108.5 -37t43.5 -106q3 -45 -9 -101l-6 -29h-356q-15 -86 15 -139.5t106 -53.5zM338 454q-61 0 -111 -41q-51 -41 -79 -116h289q11 73 -13 115t-86 42z " />
<glyph unicode="f" horiz-adv-x="310" d="M373 681q-79 0 -103 -111l-15 -70h127l-12 -58h-127l-94 -442h-62l94 442h-87l12 58h87l15 74q26 118 121 154q30 11 58 11q34 0 76 -24l-38 -53q-22 19 -52 19z" />
<glyph unicode="g" horiz-adv-x="486" d="M351 512q92 0 132 -67l12 55h62l-97 -455q-28 -132 -100 -201.5t-210 -69.5q-73 0 -149 43l53 50q44 -35 109 -35q189 0 233 201l7 32q-77 -77 -182 -77q-100 0 -140 71.5t-17 182.5q24 117 104 194q80 76 183 76zM340 454q-73 0 -133 -58q-59 -59 -79 -151 q-18 -86 9 -142.5t102 -56.5q49 0 96 25q46 25 84 71l48 224q-47 88 -127 88z" />
<glyph unicode="h" horiz-adv-x="429" d="M332 454q-82 0 -168 -109l-74 -345h-62l156 731h62l-63 -296q75 77 173 77q169 0 126 -204l-65 -308h-62l63 298q16 78 -3 117t-83 39z" />
<glyph unicode="i" horiz-adv-x="99" d="M176 603q-19 0 -29 12.5t-6 32.5q4 19 19 32t35 13q19 0 29.5 -12.5t6.5 -32.5q-4 -19 -19.5 -32t-35.5 -13zM18 0l106 500h62l-106 -500h-62z" />
<glyph unicode="j" horiz-adv-x="283" d="M347 603q-19 0 -29 12.5t-6 32.5q4 19 19 32t35 13q19 0 30 -12.5t7 -32.5q-4 -19 -20 -32t-36 -13zM-33 -142q39 -26 73 -26q112 0 151 183l103 485h62l-101 -477q-53 -249 -233 -249q-49 0 -86 31z" />
<glyph unicode="k" horiz-adv-x="386" d="M150 284q42 36 126.5 108.5t126.5 107.5h82l-289 -243q25 -32 76.5 -97.5t76.5 -97.5q17 -22 49 -62h-89l-171 226l-48 -226h-62l155 731h62z" />
<glyph unicode="l" horiz-adv-x="117" d="M86 0h-62l155 731h62z" />
<glyph unicode="m" horiz-adv-x="739" d="M597 454q-70 -8 -129 -70q2 -28 -6 -65l-67 -319h-62l64 302q32 152 -80 152q-83 -9 -148 -91l-76 -363h-62l106 500h62l-13 -60q37 35 76 54q38 18 79 18q55 0 96 -47q11 -12 21 -34q38 41 80 61t83 20q51 0 82.5 -29.5t41.5 -77.5q8 -36 -3 -86l-67 -319h-62l64 302 q32 152 -80 152z" />
<glyph unicode="n" horiz-adv-x="451" d="M338 512q50 0 82.5 -29.5t42.5 -77.5q7 -34 -4 -86l-67 -319h-62l64 302q32 152 -80 152q-82 -8 -147 -91l-77 -363h-62l106 500h62l-13 -60q38 36 76 54q39 18 79 18z" />
<glyph unicode="o" horiz-adv-x="523" d="M254 -12q-109 0 -158 71.5t-24 187.5q40 188 196 247q48 18 102 18q80 0 127.5 -40t56.5 -113q6 -53 -8 -112.5t-38 -102.5q-54 -97 -151 -136q-49 -20 -103 -20zM356 454q-80 0 -140 -55q-59 -54 -80 -153q-19 -88 15 -144t117 -56q125 0 185 118q18 34 29 86 q21 97 -10.5 150.5t-115.5 53.5z" />
<glyph unicode="p" horiz-adv-x="478" d="M236 -10q-103 0 -140 84l-63 -296h-62l153 722h62l-14 -64q70 76 169 76q106 0 151.5 -72t20.5 -188q-23 -112 -104 -187q-79 -75 -173 -75zM110 144q24 -44 52 -68t75 -28q68 3 130 61q63 60 82 144q18 87 -10.5 144t-105.5 57q-39 0 -74.5 -16t-54 -31.5t-47.5 -44.5z " />
<glyph unicode="q" horiz-adv-x="478" d="M354 512q97 0 136 -76l13 64h62l-153 -722h-62l63 296q-53 -55 -121 -76q-24 -8 -55 -8q-95 0 -142 75q-47 74 -24 187q25 120 105 192q75 68 178 68zM474 362q-25 44 -55 68t-82 24q-71 0 -125 -52q-56 -55 -76 -149q-14 -62 5 -112.5t60 -75.5q25 -15 59 -17 q37 3 71 20t50 31t47 45z" />
<glyph unicode="r" horiz-adv-x="270" d="M360 431q-28 21 -55 21q-77 0 -140 -89l-77 -363h-61l106 500h61l-12 -56q33 32 69 49q33 16 72 16q24 0 70 -17z" />
<glyph unicode="s" horiz-adv-x="360" d="M174 46q103 0 121 84q6 28 -15 49t-65 43q-62 29 -86 66q-24 35 -13 83q10 48 44.5 81.5t83.5 49.5q30 10 67 10q62 0 125 -42l-35 -56q-55 40 -108 40q-63 0 -99 -48q-9 -13 -14 -32q-6 -32 7 -50q15 -22 66 -46q40 -20 59 -34q31 -21 43.5 -46.5t3.5 -67.5 q-10 -49 -44 -82.5t-83 -48.5q-77 -23 -144 3q-37 15 -66 40l40 56q32 -35 85 -48q20 -4 27 -4z" />
<glyph unicode="t" horiz-adv-x="278" d="M278 11q-42 -20 -79 -20q-117 0 -87 137l67 314h-86l12 58h86l30 140h62l-30 -140h127l-12 -58h-127l-65 -309q-11 -41 -2 -63t43 -22q25 0 54 16z" />
<glyph unicode="u" horiz-adv-x="450" d="M209 -12q-97 0 -130.5 56t-9.5 168l61 288h63l-59 -277q-10 -44 -10 -80q0 -97 98 -97q40 0 82 25q38 22 78 72l76 357h62l-106 -500h-62l14 67q-38 -37 -79 -58t-78 -21z" />
<glyph unicode="v" horiz-adv-x="458" d="M249 0h-53l-87 500h68l64 -389q1 -6 1 -19q2 3 5 8.5t5 8.5l234 391h67z" />
<glyph unicode="w" horiz-adv-x="684" d="M418 370q-149 -278 -198 -370h-54l-45 500h67l31 -391v-2q39 72 110 206.5t99 186.5h43l29 -392v1q15 29 88.5 172.5t110.5 218.5h64l-261 -500h-54l-29 369l-1 1v1v-1z" />
<glyph unicode="x" horiz-adv-x="441" d="M304 245q18 -39 56 -123t56 -122h-79l-81 196l-13 -15q-2 -2 -5.5 -6.5t-5.5 -6.5l-144 -168h-75l218 244q-19 45 -56 131.5t-53 124.5h73l72 -177q6 -17 12 -30q33 40 94 111.5t81 95.5h74z" />
<glyph unicode="y" horiz-adv-x="463" d="M23 -226q-19 0 -47 10l33 61q11 -9 29 -9q50 0 98 74l66 103q-14 79 -42 243.5t-41 243.5h69l62 -397l1 -12q3 3 5 8l243 401h67l-365 -593q-46 -72 -83 -100q-43 -33 -95 -33z" />
<glyph unicode="z" horiz-adv-x="437" d="M119 58h301l-12 -58h-400l6 29l398 413h-287l12 58h389l-5 -24z" />
<glyph unicode="{" horiz-adv-x="219" d="M176 -154q-105 5 -113 81q-3 30 5 66l30 139q22 103 -50 114l10 47q76 10 96 106l32 147q16 70 55.5 107t113.5 40l-12 -58q-46 -2 -66 -27t-31 -75l-29 -138q-19 -94 -83 -126q49 -31 28 -133l-28 -130q-17 -79 20 -95q14 -6 34 -6z" />
<glyph unicode="|" horiz-adv-x="118" d="M-23 -226l208 981h64l-209 -981h-63z" />
<glyph unicode="}" horiz-adv-x="218" d="M271 246q-76 -11 -98 -114l-29 -139q-15 -70 -55 -107t-115 -40l12 59q45 1 66 27t30 74l28 130q21 101 84 133q-48 31 -29 126l29 138q17 81 -21 96q-13 4 -32 6l12 58q106 -5 114 -81q3 -27 -6 -66l-31 -147q-20 -96 50 -106z" />
<glyph unicode="~" horiz-adv-x="466" d="M511 353q-16 -58 -53 -95.5t-95 -37.5q-47 0 -91 42q-38 37 -69 37q-56 0 -79 -74h-55q16 58 52.5 95t94.5 37q48 0 89 -39q26 -26 39 -33q14 -7 33 -7q55 0 80 75h54z" />
<glyph unicode="&#xa1;" horiz-adv-x="104" d="M138 414q-20 0 -31 13t-7 34q4 19 20.5 33t37.5 14q20 0 30.5 -13.5t6.5 -33.5q-4 -19 -20 -33t-37 -14zM-23 -192l106 504h64l-107 -504h-63z" />
<glyph unicode="&#xa2;" horiz-adv-x="397" d="M293 125q54 6 109 43l5 -60q-66 -35 -126 -41l-20 -94h-62l20 94q-89 10 -128.5 79t-17.5 172q33 158 166 233q42 24 90 33l20 95h62l-19 -91q52 -3 113 -33l-32 -61q-48 32 -94 36zM316 525q-102 -24 -154 -132q-15 -30 -25 -72q-16 -76 9 -129q26 -54 86 -66z" />
<glyph unicode="&#xa3;" horiz-adv-x="441" d="M453 704q48 0 104 -23l-32 -61q-46 26 -87 26q-53 0 -94 -39q-37 -36 -54 -113l-26 -122h145l-13 -61h-145l-15 -74q-23 -107 -108 -179h318l-12 -58h-427l7 34q91 35 137 130q13 28 19 57l19 90h-106l12 61h107l27 127q31 143 146 190q36 15 78 15z" />
<glyph unicode="&#xa4;" horiz-adv-x="486" d="M442 239q5 -6 16 -19.5t20.5 -24.5t16.5 -19l-51 -42l-49 64q-58 -37 -123 -37q-64 0 -104 37l-78 -64l-32 42l78 63q-20 42 -16 85t20.5 77t43.5 61q-8 10 -26 32t-26 31l50 42l51 -64q62 37 120 37q61 0 105 -37q11 10 38.5 32t39.5 32l32 -42l-78 -63q26 -45 12 -112 q-13 -60 -60 -111zM342 481q-56 0 -102 -39q-47 -38 -58 -91q-9 -42 8 -74.5t48 -47.5q20 -10 47 -10q51 0 100 39q48 39 59 93q9 42 -7.5 73.5t-48.5 46.5q-20 10 -46 10z" />
<glyph unicode="&#xa5;" horiz-adv-x="468" d="M358 369h156l-13 -58h-175l-20 -97h175l-12 -58h-176l-33 -156h-62l33 156h-174l12 58h175l20 97h-175l13 58h153q-73 216 -108 324h70l89 -274q4 -22 7 -27q10 18 21 29q33 44 102.5 135.5t103.5 136.5h67z" />
<glyph unicode="&#xa6;" horiz-adv-x="107" d="M96 336l89 419h64l-89 -419h-64zM-23 -226l89 419h63l-89 -419h-63z" />
<glyph unicode="&#xa7;" horiz-adv-x="330" d="M417 633q-41 28 -93 28q-90 0 -106 -79q-5 -21 1 -37.5t15.5 -25t27.5 -19.5q15 -10 52 -29q91 -46 72 -139q-17 -77 -95 -133q31 -34 19 -94q-11 -57 -65 -97q-53 -39 -124 -39q-34 0 -89 21q-6 2 -17 7t-12 6l30 59q58 -35 101 -35q45 0 74.5 20.5t37.5 56.5 q7 36 -23 64q-14 12 -34 23q-42 23 -62 40q-44 37 -44 79q0 23 4 46q17 79 94 121q-41 43 -28 102q19 97 118 130q30 10 67 10q54 0 110 -25zM249 235q61 39 73 97q7 35 -9 55q-12 13 -30 26q-24 17 -54 31q-65 -29 -77 -86q-8 -35 3.5 -56t38.5 -38q10 -7 55 -29z" />
<glyph unicode="&#xa8;" horiz-adv-x="296" d="M342 558q-18 0 -28 12.5t-6 31.5q4 17 18 29.5t33 12.5q18 0 29.5 -11.5t7.5 -30.5q-4 -18 -19.5 -31t-34.5 -13zM186 558q-18 0 -28.5 12.5t-6.5 31.5q4 17 18.5 29.5t33.5 12.5q18 0 28.5 -11.5t6.5 -30.5q-4 -18 -18.5 -31t-33.5 -13z" />
<glyph unicode="&#xa9;" horiz-adv-x="776" d="M530 704q146 0 232 -105q84 -104 52 -253q-31 -148 -159 -253q-127 -105 -277 -105q-148 0 -232 105q-83 104 -52 252q32 151 159 254q129 105 277 105zM518 649q-126 0 -233 -89q-108 -90 -135 -215q-27 -124 44 -214q69 -88 195 -88t235 89q107 89 134 213t-44 215 q-70 89 -196 89zM415 94q-103 0 -158 69t-34 170q19 88 72 151t131 92q50 18 102 18q63 0 129 -36l-35 -52q-50 31 -113 31q-78 0 -139 -52q-66 -56 -83 -141q-14 -64 8 -110.5t68 -67.5q33 -14 69 -14q57 0 124 35l15 -49q-91 -44 -156 -44z" />
<glyph unicode="&#xaa;" horiz-adv-x="334" d="M323 382q-57 -53 -123 -53q-49 0 -75.5 28t-16.5 77q21 95 140 123q37 8 68 8q24 0 45 -3q15 84 -50 84q-27 0 -64 -13q-30 -10 -72 -38l-1 61q60 32 118 43q18 3 34 3q127 0 97 -138l-48 -227h-62zM220 385q68 0 117 64l13 58h-4l-1 1h-1q-28 5 -59 5q-90 0 -110 -78 q-10 -50 45 -50z" />
<glyph unicode="&#xab;" horiz-adv-x="387" d="M312 94l-103 168l175 171h78l-177 -171q20 -30 55.5 -88.5t48.5 -79.5h-77zM163 94l-102 168l173 171h78l-177 -171q6 -11 13 -21.5l13 -19.5q13 -21 39.5 -63.5t39.5 -63.5h-77z" />
<glyph unicode="&#xac;" horiz-adv-x="479" d="M396 69l41 192h-386l12 58h446l-53 -250h-60z" />
<glyph unicode="&#xad;" horiz-adv-x="336" d="M83 261l13 61h275l-13 -61h-275z" />
<glyph unicode="&#xae;" horiz-adv-x="776" d="M530 704q146 0 232 -105q84 -104 52 -253q-31 -148 -159 -253q-127 -105 -277 -105q-148 0 -232 105q-83 104 -52 252q32 151 159 254q129 105 277 105zM518 649q-126 0 -233 -89q-108 -90 -135 -215q-27 -124 44 -214q69 -88 195 -88t235 89q107 89 134 213t-44 215 q-70 89 -196 89zM501 586q120 0 138 -76q6 -24 0 -52q-23 -106 -140 -133q8 -19 41 -94.5t50 -116.5h-71l-81 201h-66l-43 -201h-62l101 472h133zM465 367q63 0 95 50q9 13 14 33q9 42 -12 63t-73 21h-71l-35 -167h82z" />
<glyph unicode="&#xaf;" horiz-adv-x="415" d="M199 806l13 61h419l-13 -61h-419z" />
<glyph unicode="&#xb0;" horiz-adv-x="293" d="M238 437q-40 0 -67 22t-35 57q-12 50 21 99q29 46 82 68q24 10 51 10q40 0 67 -21.5t35 -56.5q11 -47 -20 -99q-31 -48 -82 -69q-24 -10 -52 -10zM280 638q-44 0 -74 -44q-18 -28 -13 -57q9 -45 55 -45q47 0 74 45q11 18 13 39.5t-10 40.5q-16 21 -45 21z" />
<glyph unicode="&#xb1;" horiz-adv-x="448" d="M312 297l-41 -193h-58l41 193h-193l12 59h194l41 193h58l-41 -193h193l-12 -59h-194zM-2 0l12 58h445l-12 -58h-445z" />
<glyph unicode="&#xb2;" horiz-adv-x="329" d="M321 791q-47 0 -126 -58l16 74q32 19 65 31q29 10 60 10q55 0 83 -29.5t16 -84.5q-12 -60 -80 -124q-25 -23 -64 -55l-91 -74h183l-13 -61h-262l12 60l139 113q62 50 87 81q20 25 26 54q14 63 -51 63z" />
<glyph unicode="&#xb3;" horiz-adv-x="329" d="M204 409q-55 0 -95 25l15 68q50 -37 93 -37q38 0 63 19.5t33 52.5q7 34 -14.5 51.5t-71.5 17.5h-43l12 57h38q92 0 107 71q12 55 -51 55q-31 0 -96 -31l13 64q55 24 104 24q50 0 76.5 -27.5t15.5 -78.5q-15 -71 -76 -101q61 -28 45 -102q-20 -89 -107 -119q-24 -9 -61 -9 z" />
<glyph unicode="&#xb4;" horiz-adv-x="175" d="M172 558h-65l161 173h72z" />
<glyph unicode="&#xb5;" horiz-adv-x="433" d="M205 -12q-74 0 -108 46l-46 -218h-61l144 684h62l-58 -277q-30 -138 33 -167q20 -10 54 -10q62 0 112 48q48 46 65 124l59 282h62l-106 -500h-62l14 65q-69 -77 -164 -77z" />
<glyph unicode="&#xb6;" horiz-adv-x="401" d="M286 693h242l-13 -60h-61l-135 -633h-59l135 633h-75l-134 -633h-60l90 425q-49 4 -74.5 41t-14.5 92q20 93 107 125q28 10 52 10z" />
<glyph unicode="&#xb7;" horiz-adv-x="127" d="M125 294q-19 0 -30 14t-7 34q4 19 20 32.5t37 13.5q19 0 30.5 -13t7.5 -33t-20 -34t-38 -14z" />
<glyph unicode="&#xb8;" horiz-adv-x="202" d="M38 -151q64 0 72 33q4 16 -9.5 24t-42.5 8q-12 0 -40 -4l23 109h53l-12 -55q52 -1 74.5 -21t14.5 -58q-19 -89 -148 -89q-17 0 -45 3l11 54q29 -4 49 -4z" />
<glyph unicode="&#xb9;" horiz-adv-x="329" d="M346 420h-240l12 58h92l64 298q-16 -5 -53 -16.5t-53 -16.5l13 61l168 50l-80 -376h90z" />
<glyph unicode="&#xba;" horiz-adv-x="389" d="M260 327q-78 0 -114.5 52t-18.5 135q28 132 142 175q33 13 74 13q79 0 114 -51t17 -136q-13 -61 -49.5 -106t-89.5 -67q-35 -15 -75 -15zM330 646q-78 0 -120 -78q-18 -34 -23 -73.5t13 -75.5q23 -35 73 -35q57 0 91 36.5t46 95.5q13 60 -7.5 95t-72.5 35z" />
<glyph unicode="&#xbb;" horiz-adv-x="389" d="M258 94h-77l176 172q-40 67 -105 167h78l103 -168zM110 94h-80l178 172q-9 15 -106 167h79l102 -167z" />
<glyph unicode="&#xbc;" horiz-adv-x="701" d="M639 103q-8 -16 -27 -51.5t-27 -51.5h-23l21 103h-184l9 43l243 272h57l-56 -260h52l-12 -55h-53zM232 274h-59l76 356q-16 -5 -53.5 -16.5t-52.5 -16.5l13 61l168 50zM179 0h-5l500 693h67zM595 158l35 166q-4 -6 -6 -8l-139 -158h110z" />
<glyph unicode="&#xbd;" horiz-adv-x="737" d="M180 0h-67l563 693h67zM658 370q-50 0 -126 -57l16 74q70 41 125 41q54 0 82.5 -30.5t16.5 -84.5q-9 -41 -37 -76q-35 -46 -106 -102l-92 -74h183l-13 -61h-262l13 60l139 113q65 54 86 80q19 25 26 55q13 62 -51 62zM232 274h-59l76 356q-6 -2 -47 -14.5t-59 -18.5 l13 61l169 50z" />
<glyph unicode="&#xbe;" horiz-adv-x="714" d="M650 103q-8 -16 -26.5 -51.5t-26.5 -51.5h-24l22 103h-185l9 43l244 272h57l-56 -260h52l-12 -55h-54zM171 263q-55 0 -95 25l15 68q50 -37 93 -37q38 0 63 19.5t33 52.5q7 34 -14.5 51.5t-71.5 17.5h-43l12 57h38q92 0 107 71q12 55 -51 55q-31 0 -96 -31l13 64 q55 24 104 24q50 0 76.5 -27.5t15.5 -78.5q-15 -71 -76 -101q61 -28 45 -102q-20 -89 -107 -119q-24 -9 -61 -9zM190 0h-67l563 693h67zM606 158l36 166l-6 -8l-140 -158h110z" />
<glyph unicode="&#xbf;" horiz-adv-x="351" d="M323 -131q-48 -37 -90 -55t-103 -18q-74 0 -114 41t-24 117q7 36 28.5 68.5t41 50.5t53.5 44q57 44 77 66q30 31 30 93q0 26 -1 37h57q10 -49 -1.5 -88.5t-38.5 -67t-56.5 -50.5t-61.5 -51.5t-48 -56.5q-26 -46 -17 -83q14 -59 89 -59q60 0 121 36q15 9 31 23zM296 508 q20 0 30.5 -13.5t6.5 -33.5q-4 -19 -20 -33t-37 -14t-31.5 13t-6.5 34q4 20 20 33.5t38 13.5z" />
<glyph unicode="&#xc0;" d="M199 212q-56 -96 -123 -212h-73l413 700h58l113 -700h-73l-33 212h-282zM424 576h1q-1 4 -2 11.5t-1 11.5q-43 -75 -187 -325h236zM491 758l-94 173h73l86 -173h-65z" />
<glyph unicode="&#xc1;" d="M199 212q-56 -96 -123 -212h-73l413 700h58l113 -700h-73l-33 212h-282zM424 576h1q-1 4 -2 11.5t-1 11.5q-43 -75 -187 -325h236zM425 758h-65l161 173h72z" />
<glyph unicode="&#xc2;" d="M199 212q-56 -96 -123 -212h-73l413 700h58l113 -700h-73l-33 212h-282zM424 576h1q-1 4 -2 11.5t-1 11.5q-43 -75 -187 -325h236zM480 863q-43 -48 -93 -105h-61l154 177h31l77 -177h-63z" />
<glyph unicode="&#xc3;" d="M199 212q-56 -96 -123 -212h-73l413 700h58l113 -700h-73l-33 212h-282zM424 576h1q-1 4 -2 11.5t-1 11.5q-43 -75 -187 -325h236zM521 764q-33 0 -69 38q-22 23 -45 23q-38 0 -53 -67h-52q18 84 79 114q19 9 39 9q38 0 74 -36q17 -17 22 -20q10 -6 21 -6q16 0 29 17 q13 18 21 52h54q-19 -88 -80 -115q-20 -9 -40 -9z" />
<glyph unicode="&#xc4;" d="M199 212q-56 -96 -123 -212h-73l413 700h58l113 -700h-73l-33 212h-282zM424 576h1q-1 4 -2 11.5t-1 11.5q-43 -75 -187 -325h236zM535 758q-18 0 -28 12.5t-6 31.5q4 17 18 29.5t33 12.5q18 0 29.5 -11.5t7.5 -30.5q-4 -18 -19.5 -31t-34.5 -13zM379 758 q-18 0 -28.5 12.5t-6.5 31.5q4 17 18.5 29.5t33.5 12.5q18 0 28.5 -11.5t6.5 -30.5q-4 -18 -18.5 -31t-33.5 -13z" />
<glyph unicode="&#xc5;" horiz-adv-x="600" d="M199 212q-56 -96 -123 -212h-72l387 656q-55 24 -41 90q6 32 28.5 55.5t54.5 34.5q20 7 43 7q70 0 84 -57q4 -18 0 -40q-14 -63 -79 -89q32 -205 106 -657h-73l-33 212h-282zM425 576q-1 4 -2 11.5t-1 11.5q-154 -269 -186 -325h235zM464 792q-50 0 -60 -46 q-4 -21 8 -33.5t33 -12.5q23 0 39.5 13t21.5 33q5 22 -7 34t-35 12z" />
<glyph unicode="&#xc7;" horiz-adv-x="582" d="M646 589q-61 61 -159 61q-115 0 -206 -84q-92 -84 -120 -218t24 -216t169 -82q98 0 181 55l21 -53q-101 -64 -214 -64q-148 0 -216 99t-34 256q26 124 95 212.5t175 129.5q66 26 147 26q109 0 184 -67zM219 -151q65 0 72 33q4 16 -9.5 24t-42.5 8q-12 0 -40 -4l23 109h53 l-12 -55q52 -1 74.5 -21t14.5 -58q-19 -89 -148 -89q-16 0 -45 3l11 54q29 -4 49 -4z" />
<glyph unicode="&#xc8;" horiz-adv-x="383" d="M31 0l148 700h338l-14 -62h-271l-54 -254h252l-13 -62h-252l-56 -260h287l-12 -62h-353zM383 758l-94 173h73l86 -173h-65z" />
<glyph unicode="&#xc9;" horiz-adv-x="383" d="M31 0l148 700h338l-14 -62h-271l-54 -254h252l-13 -62h-252l-56 -260h287l-12 -62h-353zM318 758h-65l161 173h72z" />
<glyph unicode="&#xca;" horiz-adv-x="383" d="M31 0l148 700h338l-14 -62h-271l-54 -254h252l-13 -62h-252l-56 -260h287l-12 -62h-353zM373 863q-43 -48 -93 -105h-61l154 177h31l77 -177h-63z" />
<glyph unicode="&#xcb;" horiz-adv-x="383" d="M31 0l148 700h338l-14 -62h-271l-54 -254h252l-13 -62h-252l-56 -260h287l-12 -62h-353zM427 758q-18 0 -28 12.5t-6 31.5q4 17 18 29.5t33 12.5q18 0 29.5 -11.5t7.5 -30.5q-4 -18 -19.5 -31t-34.5 -13zM271 758q-18 0 -28.5 12.5t-6.5 31.5q4 17 18.5 29.5t33.5 12.5 q18 0 28.5 -11.5t6.5 -30.5q-4 -18 -18.5 -31t-33.5 -13z" />
<glyph unicode="&#xcc;" horiz-adv-x="226" d="M242 700l-148 -700h-66l148 700h66zM220 728l-94 173h73l86 -173h-65z" />
<glyph unicode="&#xcd;" horiz-adv-x="226" d="M242 700l-148 -700h-66l148 700h66zM224 728h-65l161 173h72z" />
<glyph unicode="&#xce;" horiz-adv-x="226" d="M242 700l-148 -700h-66l148 700h66zM242 833q-43 -48 -93 -105h-61l154 177h31l77 -177h-63z" />
<glyph unicode="&#xcf;" horiz-adv-x="226" d="M242 700l-148 -700h-66l148 700h66zM294 728q-18 0 -28 12.5t-6 31.5q4 17 18 29.5t33 12.5q18 0 29.5 -11.5t7.5 -30.5q-4 -18 -19.5 -31t-34.5 -13zM138 728q-18 0 -28.5 12.5t-6.5 31.5q4 17 18.5 29.5t33.5 12.5q18 0 28.5 -11.5t6.5 -30.5q-4 -18 -18.5 -31 t-33.5 -13z" />
<glyph unicode="&#xd0;" horiz-adv-x="649" d="M416 700q171 0 245.5 -84.5t37.5 -256.5q-34 -162 -153 -260q-119 -99 -289 -99h-170l67 317h-71l13 61h71l68 322h181zM263 62q223 0 321 169q32 57 47 127q60 280 -236 280h-106l-56 -260h192l-13 -61h-191l-55 -255h97z" />
<glyph unicode="&#xd1;" horiz-adv-x="603" d="M517 0l-291 554q-8 12 -9 17l-121 -571h-66l149 700h50l289 -550q1 -3 4 -8t4 -9q1 4 2 7t1 6q1 2 1 6t1 6l115 542h66l-148 -700h-47zM523 764q-33 0 -69 38q-22 23 -45 23q-38 0 -53 -67h-52q18 84 79 114q19 9 39 9q38 0 74 -36q17 -17 22 -20q10 -6 21 -6q16 0 29 17 q13 18 21 52h54q-19 -88 -80 -115q-20 -9 -40 -9z" />
<glyph unicode="&#xd2;" horiz-adv-x="706" d="M343 -12q-148 0 -216 99t-34 256q26 124 95 212.5t175 129.5q66 26 147 26q142 0 209 -97q67 -98 33 -254q-37 -172 -147 -272q-111 -100 -262 -100zM488 650q-115 0 -206 -84q-92 -84 -120 -218q-29 -135 24 -216q54 -82 169 -82q122 0 210 81q89 81 119 222 q29 137 -24 218q-53 79 -172 79zM545 758l-94 173h73l86 -173h-65z" />
<glyph unicode="&#xd3;" horiz-adv-x="706" d="M343 -12q-148 0 -216 99t-34 256q26 124 95 212.5t175 129.5q66 26 147 26q142 0 209 -97q67 -98 33 -254q-37 -172 -147 -272q-111 -100 -262 -100zM488 650q-115 0 -206 -84q-92 -84 -120 -218q-29 -135 24 -216q54 -82 169 -82q122 0 210 81q89 81 119 222 q29 137 -24 218q-53 79 -172 79zM479 758h-65l161 173h72z" />
<glyph unicode="&#xd4;" horiz-adv-x="706" d="M343 -12q-148 0 -216 99t-34 256q26 124 95 212.5t175 129.5q66 26 147 26q142 0 209 -97q67 -98 33 -254q-37 -172 -147 -272q-111 -100 -262 -100zM488 650q-115 0 -206 -84q-92 -84 -120 -218q-29 -135 24 -216q54 -82 169 -82q122 0 210 81q89 81 119 222 q29 137 -24 218q-53 79 -172 79zM534 863q-43 -48 -93 -105h-61l154 177h31l77 -177h-63z" />
<glyph unicode="&#xd5;" horiz-adv-x="706" d="M343 -12q-148 0 -216 99t-34 256q26 124 95 212.5t175 129.5q66 26 147 26q142 0 209 -97q67 -98 33 -254q-37 -172 -147 -272q-111 -100 -262 -100zM488 650q-115 0 -206 -84q-92 -84 -120 -218q-29 -135 24 -216q54 -82 169 -82q122 0 210 81q89 81 119 222 q29 137 -24 218q-53 79 -172 79zM574 764q-33 0 -69 38q-22 23 -45 23q-38 0 -53 -67h-52q18 84 79 114q20 9 39 9q38 0 74 -36q17 -17 22 -20q11 -6 21 -6q16 0 29 17q13 18 21 52h54q-19 -88 -80 -115q-20 -9 -40 -9z" />
<glyph unicode="&#xd6;" horiz-adv-x="706" d="M343 -12q-148 0 -216 99t-34 256q26 124 95 212.5t175 129.5q66 26 147 26q142 0 209 -97q67 -98 33 -254q-37 -172 -147 -272q-111 -100 -262 -100zM488 650q-115 0 -206 -84q-92 -84 -120 -218q-29 -135 24 -216q54 -82 169 -82q122 0 210 81q89 81 119 222 q29 137 -24 218q-53 79 -172 79zM589 758q-18 0 -28 12.5t-6 31.5q4 17 18 29.5t33 12.5q18 0 29.5 -11.5t7.5 -30.5q-4 -18 -19.5 -31t-34.5 -13zM433 758q-18 0 -28.5 12.5t-6.5 31.5q4 17 18.5 29.5t33.5 12.5q18 0 28.5 -11.5t6.5 -30.5q-4 -18 -18.5 -31t-33.5 -13z " />
<glyph unicode="&#xd7;" horiz-adv-x="444" d="M288 331q30 25 95 78.5t96 78.5l32 -41l-190 -157l123 -158l-50 -40l-123 158q-30 -25 -95 -79t-95 -79l-33 40l191 158q-62 77 -124 157l50 41z" />
<glyph unicode="&#xd8;" horiz-adv-x="717" d="M354 -12q-129 0 -200 77l-100 -95l-38 36l109 103q-51 98 -21 234q26 124 95 212.5t175 129.5q66 26 147 26q109 0 175 -58q43 41 84 79l37 -37l-85 -81q65 -98 32 -254q-36 -170 -149 -272q-111 -100 -261 -100zM645 603q-55 47 -145 47q-116 0 -207 -84 q-92 -84 -120 -218q-23 -113 7 -186zM366 50q123 0 211 81q87 80 118 222q27 128 -17 210l-470 -447q52 -66 158 -66z" />
<glyph unicode="&#xd9;" horiz-adv-x="647" d="M262 -12q-239 0 -179 283l90 429h66l-90 -422q-48 -228 135 -228q177 0 225 221l91 429h65l-89 -418q-63 -294 -314 -294zM447 728l-94 173h73l86 -173h-65z" />
<glyph unicode="&#xda;" horiz-adv-x="647" d="M262 -12q-239 0 -179 283l90 429h66l-90 -422q-48 -228 135 -228q177 0 225 221l91 429h65l-89 -418q-63 -294 -314 -294zM421 727h-65l161 173h72z" />
<glyph unicode="&#xdb;" horiz-adv-x="647" d="M262 -12q-239 0 -179 283l90 429h66l-90 -422q-48 -228 135 -228q177 0 225 221l91 429h65l-89 -418q-63 -294 -314 -294zM468 833q-43 -48 -93 -105h-61l154 177h31l77 -177h-63z" />
<glyph unicode="&#xdc;" horiz-adv-x="647" d="M262 -12q-239 0 -179 283l90 429h66l-90 -422q-48 -228 135 -228q177 0 225 221l91 429h65l-89 -418q-63 -294 -314 -294zM517 728q-18 0 -28 12.5t-6 31.5q4 17 18 29.5t33 12.5q18 0 29.5 -11.5t7.5 -30.5q-4 -18 -19.5 -31t-34.5 -13zM361 728q-18 0 -28.5 12.5 t-6.5 31.5q4 17 18.5 29.5t33.5 12.5q18 0 28.5 -11.5t6.5 -30.5q-4 -18 -18.5 -31t-33.5 -13z" />
<glyph unicode="&#xdd;" horiz-adv-x="540" d="M319 335q23 32 117.5 163.5t144.5 201.5h72l-319 -434l-56 -266h-65l56 265q-20 72 -61 217.5t-61 217.5h74l91 -333q1 -4 3.5 -15t3.5 -17zM360 743h-65l161 173h72z" />
<glyph unicode="&#xde;" horiz-adv-x="427" d="M326 587q225 0 183 -201q-16 -77 -65.5 -131t-122.5 -78q-48 -16 -108 -16h-86l-34 -161h-66l149 700h66l-24 -113h108zM228 222q177 0 212 158q31 145 -136 145h-99l-65 -303h88z" />
<glyph unicode="&#xdf;" horiz-adv-x="449" d="M169 62q42 -16 68 -16q93 0 143 85q37 64 23 121q-22 88 -159 112l11 53q150 33 176 149q11 54 -10 84.5t-70 30.5q-51 0 -80.5 -24.5t-49.5 -70.5q-17 -41 -28 -93l-105 -492h-62l106 498q27 130 91 190q53 50 144 50q73 0 109.5 -45t20.5 -122q-25 -120 -144 -176 q63 -23 96.5 -75.5t17.5 -129.5q-14 -66 -55.5 -114.5t-101.5 -72.5q-43 -16 -84 -16q-29 0 -74 18q-10 4 -17 9z" />
<glyph unicode="&#xe0;" horiz-adv-x="494" d="M308 298q48 0 85 -6q35 162 -73 162q-82 0 -162 -61l-31 41q91 78 210 78q82 0 113.5 -49t11.5 -141l-68 -322h-62l11 55q-52 -44 -126 -61q-24 -6 -46 -6q-52 0 -86 23t-42 65q-6 25 2 57q19 83 88 124t175 41zM380 236q-31 7 -78 7q-114 0 -166 -55q-37 -39 -27 -89 q11 -53 80 -53q64 0 113 34v-1q24 16 37 29q15 15 19 24zM331 558l-94 173h73l86 -173h-65z" />
<glyph unicode="&#xe1;" horiz-adv-x="494" d="M308 298q48 0 85 -6q35 162 -73 162q-82 0 -162 -61l-31 41q91 78 210 78q82 0 113.5 -49t11.5 -141l-68 -322h-62l11 55q-52 -44 -126 -61q-24 -6 -46 -6q-52 0 -86 23t-42 65q-6 25 2 57q19 83 88 124t175 41zM380 236q-31 7 -78 7q-114 0 -166 -55q-37 -39 -27 -89 q11 -53 80 -53q64 0 113 34v-1q24 16 37 29q15 15 19 24zM282 558h-65l161 173h72z" />
<glyph unicode="&#xe2;" horiz-adv-x="494" d="M308 298q48 0 85 -6q35 162 -73 162q-82 0 -162 -61l-31 41q91 78 210 78q82 0 113.5 -49t11.5 -141l-68 -322h-62l11 55q-52 -44 -126 -61q-24 -6 -46 -6q-52 0 -86 23t-42 65q-6 25 2 57q19 83 88 124t175 41zM380 236q-31 7 -78 7q-114 0 -166 -55q-37 -39 -27 -89 q11 -53 80 -53q64 0 113 34v-1q24 16 37 29q15 15 19 24zM339 663q-43 -48 -93 -105h-61l154 177h31l77 -177h-63z" />
<glyph unicode="&#xe3;" horiz-adv-x="494" d="M308 298q48 0 85 -6q35 162 -73 162q-82 0 -162 -61l-31 41q91 78 210 78q82 0 113.5 -49t11.5 -141l-68 -322h-62l11 55q-52 -44 -126 -61q-24 -6 -46 -6q-52 0 -86 23t-42 65q-6 25 2 57q19 83 88 124t175 41zM380 236q-31 7 -78 7q-114 0 -166 -55q-37 -39 -27 -89 q11 -53 80 -53q64 0 113 34v-1q24 16 37 29q15 15 19 24zM435 564q-33 0 -69 38q-22 23 -45 23q-38 0 -53 -67h-52q18 84 79 114q20 9 39 9q38 0 74 -36q17 -17 22 -20q10 -6 21 -6q16 0 29 17q13 18 21 52h54q-19 -88 -80 -115q-19 -9 -40 -9z" />
<glyph unicode="&#xe4;" horiz-adv-x="494" d="M308 298q48 0 85 -6q35 162 -73 162q-82 0 -162 -61l-31 41q91 78 210 78q82 0 113.5 -49t11.5 -141l-68 -322h-62l11 55q-52 -44 -126 -61q-24 -6 -46 -6q-52 0 -86 23t-42 65q-6 25 2 57q19 83 88 124t175 41zM380 236q-31 7 -78 7q-114 0 -166 -55q-37 -39 -27 -89 q11 -53 80 -53q64 0 113 34v-1q24 16 37 29q15 15 19 24zM386 558q-18 0 -28 12.5t-6 31.5q4 17 18 29.5t33 12.5q18 0 29.5 -11.5t7.5 -30.5q-4 -18 -19.5 -31t-34.5 -13zM230 558q-18 0 -28.5 12.5t-6.5 31.5q4 17 18.5 29.5t33.5 12.5q18 0 28.5 -11.5t6.5 -30.5 q-4 -18 -18.5 -31t-33.5 -13z" />
<glyph unicode="&#xe5;" horiz-adv-x="414" d="M358 558q-44 0 -68 25.5t-15 70.5q14 65 81 89q20 7 43 7q44 0 68 -25.5t15 -70.5q-13 -65 -81 -89q-20 -7 -43 -7zM389 700q-24 0 -39.5 -12.5t-20.5 -33.5q-4 -21 7 -33.5t33 -12.5q23 0 39.5 13t21.5 33q5 22 -7 34t-34 12zM312 454q-82 0 -163 -61l-30 41 q91 78 209 78q82 0 113.5 -49t11.5 -141l-68 -322h-62l11 55q-52 -44 -126 -61q-24 -6 -45 -6q-52 0 -86 23t-42 65q-6 28 1 58q37 117 156 153q36 11 70 11q69 0 117 -32l12 57q22 131 -79 131zM365 206q-50 37 -110 37q-89 0 -135 -64q-28 -38 -20 -80q11 -53 80 -53 q64 0 113 34v-1q24 15 38 29q15 15 19 24z" />
<glyph unicode="&#xe7;" horiz-adv-x="443" d="M410 36q-75 -48 -157 -48q-109 0 -158 71.5t-24 187.5q40 188 196 247q48 18 103 18q81 0 133 -46l-44 -49q-42 37 -104 37q-80 0 -140 -55q-59 -54 -80 -153q-19 -88 15 -144t117 -56q65 0 124 41zM207 -151q65 0 72 33q4 16 -9.5 24t-42.5 8q-12 0 -40 -4l23 109h53 l-12 -55q52 -1 74.5 -21t14.5 -58q-19 -89 -148 -89q-16 0 -45 3l11 54q29 -4 49 -4z" />
<glyph unicode="&#xe8;" horiz-adv-x="504" d="M254 46q77 0 159 57l19 -50q-106 -65 -200 -65q-104 0 -144.5 74.5t-15.5 190.5q23 108 102 183q82 76 178 76q70 0 108.5 -37t43.5 -106q3 -45 -9 -101l-6 -29h-356q-15 -86 15 -139.5t106 -53.5zM338 454q-61 0 -111 -41q-51 -41 -79 -116h289q11 73 -13 115t-86 42z M356 558l-94 173h73l86 -173h-65z" />
<glyph unicode="&#xe9;" horiz-adv-x="504" d="M254 46q77 0 159 57l19 -50q-106 -65 -200 -65q-104 0 -144.5 74.5t-15.5 190.5q23 108 102 183q82 76 178 76q70 0 108.5 -37t43.5 -106q3 -45 -9 -101l-6 -29h-356q-15 -86 15 -139.5t106 -53.5zM338 454q-61 0 -111 -41q-51 -41 -79 -116h289q11 73 -13 115t-86 42z M300 558h-65l161 173h72z" />
<glyph unicode="&#xea;" horiz-adv-x="504" d="M254 46q77 0 159 57l19 -50q-106 -65 -200 -65q-104 0 -144.5 74.5t-15.5 190.5q23 108 102 183q82 76 178 76q70 0 108.5 -37t43.5 -106q3 -45 -9 -101l-6 -29h-356q-15 -86 15 -139.5t106 -53.5zM338 454q-61 0 -111 -41q-51 -41 -79 -116h289q11 73 -13 115t-86 42z M356 663q-43 -48 -93 -105h-61l154 177h31l77 -177h-63z" />
<glyph unicode="&#xeb;" horiz-adv-x="504" d="M254 46q77 0 159 57l19 -50q-106 -65 -200 -65q-104 0 -144.5 74.5t-15.5 190.5q23 108 102 183q82 76 178 76q70 0 108.5 -37t43.5 -106q3 -45 -9 -101l-6 -29h-356q-15 -86 15 -139.5t106 -53.5zM338 454q-61 0 -111 -41q-51 -41 -79 -116h289q11 73 -13 115t-86 42z M404 558q-18 0 -28 12.5t-6 31.5q4 17 18 29.5t33 12.5q18 0 29.5 -11.5t7.5 -30.5q-4 -18 -19.5 -31t-34.5 -13zM248 558q-18 0 -28.5 12.5t-6.5 31.5q4 17 18.5 29.5t33.5 12.5q18 0 28.5 -11.5t6.5 -30.5q-4 -18 -18.5 -31t-33.5 -13z" />
<glyph unicode="&#xec;" horiz-adv-x="185" d="M99 0l106 500h62l-106 -500h-62zM232 558l-93 173h72l87 -173h-66z" />
<glyph unicode="&#xed;" horiz-adv-x="177" d="M38 0l106 500h62l-106 -500h-62zM116 558h-65l160 173h73z" />
<glyph unicode="&#xee;" horiz-adv-x="248" d="M89 0l106 500h62l-106 -500h-62zM213 663q-15 -17 -92 -105h-61l153 177h32l78 -177h-63z" />
<glyph unicode="&#xef;" horiz-adv-x="242" d="M86 0l106 500h62l-106 -500h-62zM265 558q-18 0 -28 12.5t-6 31.5q4 17 18 29.5t33 12.5q18 0 29 -11.5t7 -30.5q-4 -18 -19 -31t-34 -13zM108 558q-18 0 -28 12.5t-6 31.5q4 17 18.5 29.5t33.5 12.5q18 0 28.5 -11.5t6.5 -30.5q-4 -18 -19 -31t-34 -13z" />
<glyph unicode="&#xf0;" horiz-adv-x="485" d="M337 730q34 -27 72 -71q43 19 159 71l15 -50l-143 -63q55 -77 74 -176q14 -86 2.5 -162t-42.5 -134q-51 -98 -143 -137q-46 -20 -97 -20q-79 0 -124 39.5t-52 113.5q-10 109 47 213q56 100 147 138q48 20 98 20q51 0 85 -22q-24 56 -57 99q-25 -11 -79 -35.5t-78 -35.5 l-15 49l139 61q-41 43 -110 102h102zM338 454q-74 0 -132 -58q-57 -57 -77 -150t12 -146q33 -54 107 -54q73 0 127 56q53 54 73 148q44 204 -110 204z" />
<glyph unicode="&#xf1;" horiz-adv-x="535" d="M338 512q50 0 82.5 -29.5t42.5 -77.5q7 -34 -4 -86l-67 -319h-62l64 302q32 152 -80 152q-82 -8 -147 -91l-77 -363h-62l106 500h62l-13 -60q38 36 76 54q39 18 79 18zM470 564q-33 0 -69 38q-22 23 -45 23q-38 0 -53 -67h-52q18 84 79 114q20 9 39 9q38 0 74 -36 q17 -17 22 -20q11 -6 21 -6q16 0 29 17q13 18 21 52h54q-19 -88 -80 -115q-20 -9 -40 -9z" />
<glyph unicode="&#xf2;" horiz-adv-x="561" d="M254 -12q-109 0 -158 71.5t-24 187.5q40 188 196 247q48 18 102 18q80 0 127.5 -40t56.5 -113q6 -53 -8 -112.5t-38 -102.5q-54 -97 -151 -136q-49 -20 -103 -20zM356 454q-80 0 -140 -55q-59 -54 -80 -153q-19 -88 15 -144t117 -56q125 0 185 118q18 34 29 86 q21 97 -10.5 150.5t-115.5 53.5zM367 558l-94 173h73l86 -173h-65z" />
<glyph unicode="&#xf3;" horiz-adv-x="561" d="M254 -12q-109 0 -158 71.5t-24 187.5q40 188 196 247q48 18 102 18q80 0 127.5 -40t56.5 -113q6 -53 -8 -112.5t-38 -102.5q-54 -97 -151 -136q-49 -20 -103 -20zM356 454q-80 0 -140 -55q-59 -54 -80 -153q-19 -88 15 -144t117 -56q125 0 185 118q18 34 29 86 q21 97 -10.5 150.5t-115.5 53.5zM325 558h-65l161 173h72z" />
<glyph unicode="&#xf4;" horiz-adv-x="561" d="M254 -12q-109 0 -158 71.5t-24 187.5q40 188 196 247q48 18 102 18q80 0 127.5 -40t56.5 -113q6 -53 -8 -112.5t-38 -102.5q-54 -97 -151 -136q-49 -20 -103 -20zM356 454q-80 0 -140 -55q-59 -54 -80 -153q-19 -88 15 -144t117 -56q125 0 185 118q18 34 29 86 q21 97 -10.5 150.5t-115.5 53.5zM377 663q-43 -48 -93 -105h-61l154 177h31l77 -177h-63z" />
<glyph unicode="&#xf5;" horiz-adv-x="561" d="M254 -12q-109 0 -158 71.5t-24 187.5q40 188 196 247q48 18 102 18q80 0 127.5 -40t56.5 -113q6 -53 -8 -112.5t-38 -102.5q-54 -97 -151 -136q-49 -20 -103 -20zM356 454q-80 0 -140 -55q-59 -54 -80 -153q-19 -88 15 -144t117 -56q125 0 185 118q18 34 29 86 q21 97 -10.5 150.5t-115.5 53.5zM478 564q-33 0 -69 38q-22 23 -45 23q-38 0 -53 -67h-52q18 84 79 114q20 9 39 9q38 0 74 -36q17 -17 22 -20q11 -6 21 -6q16 0 29 17q13 18 21 52h54q-19 -88 -80 -115q-20 -9 -40 -9z" />
<glyph unicode="&#xf6;" horiz-adv-x="561" d="M254 -12q-109 0 -158 71.5t-24 187.5q40 188 196 247q48 18 102 18q80 0 127.5 -40t56.5 -113q6 -53 -8 -112.5t-38 -102.5q-54 -97 -151 -136q-49 -20 -103 -20zM356 454q-80 0 -140 -55q-59 -54 -80 -153q-19 -88 15 -144t117 -56q125 0 185 118q18 34 29 86 q21 97 -10.5 150.5t-115.5 53.5zM427 558q-18 0 -28 12.5t-6 31.5q4 17 18 29.5t33 12.5q18 0 29.5 -11.5t7.5 -30.5q-4 -18 -19.5 -31t-34.5 -13zM271 558q-18 0 -28.5 12.5t-6.5 31.5q4 17 18.5 29.5t33.5 12.5q18 0 28.5 -11.5t6.5 -30.5q-4 -18 -18.5 -31t-33.5 -13z " />
<glyph unicode="&#xf7;" horiz-adv-x="448" d="M307 407q-19 0 -29.5 13t-6.5 33q4 18 19.5 31.5t35.5 13.5q19 0 29.5 -13t6.5 -32q-4 -18 -20 -32t-35 -14zM53 261l12 58h445l-12 -58h-445zM238 82q-19 0 -29.5 13t-6.5 33q4 18 19.5 31.5t35.5 13.5q19 0 29 -13t6 -32q-4 -18 -19.5 -32t-34.5 -14z" />
<glyph unicode="&#xf8;" horiz-adv-x="582" d="M535 461q18 16 54 49t45 41l35 -39l-106 -95q29 -64 8 -168q-18 -87 -67 -149t-123 -92q-49 -20 -103 -20q-86 0 -138 50q-15 -13 -49 -43.5t-48 -43.5l-33 40l100 90q-35 70 -14 166q40 188 196 247q48 18 103 18q92 0 140 -51zM381 454q-81 0 -141 -55 q-59 -54 -80 -153q-15 -69 3 -118l321 288q-35 38 -103 38zM292 46q125 0 185 118q22 44 32.5 95t-0.5 110l-319 -286q36 -37 102 -37z" />
<glyph unicode="&#xf9;" horiz-adv-x="535" d="M209 -12q-97 0 -130.5 56t-9.5 168l61 288h63l-59 -277q-10 -44 -10 -80q0 -97 98 -97q40 0 82 25q38 22 78 72l76 357h62l-106 -500h-62l14 67q-38 -37 -79 -58t-78 -21zM350 558l-94 173h73l86 -173h-65z" />
<glyph unicode="&#xfa;" horiz-adv-x="535" d="M209 -12q-97 0 -130.5 56t-9.5 168l61 288h63l-59 -277q-10 -44 -10 -80q0 -97 98 -97q40 0 82 25q38 22 78 72l76 357h62l-106 -500h-62l14 67q-38 -37 -79 -58t-78 -21zM326 558h-65l161 173h72z" />
<glyph unicode="&#xfb;" horiz-adv-x="535" d="M209 -12q-97 0 -130.5 56t-9.5 168l61 288h63l-59 -277q-10 -44 -10 -80q0 -97 98 -97q40 0 82 25q38 22 78 72l76 357h62l-106 -500h-62l14 67q-38 -37 -79 -58t-78 -21zM367 663q-43 -48 -93 -105h-61l154 177h31l77 -177h-63z" />
<glyph unicode="&#xfc;" horiz-adv-x="535" d="M209 -12q-97 0 -130.5 56t-9.5 168l61 288h63l-59 -277q-10 -44 -10 -80q0 -97 98 -97q40 0 82 25q38 22 78 72l76 357h62l-106 -500h-62l14 67q-38 -37 -79 -58t-78 -21zM420 558q-18 0 -28 12.5t-6 31.5q4 17 18 29.5t33 12.5q18 0 29.5 -11.5t7.5 -30.5 q-4 -18 -19.5 -31t-34.5 -13zM264 558q-18 0 -28.5 12.5t-6.5 31.5q4 17 18.5 29.5t33.5 12.5q18 0 28.5 -11.5t6.5 -30.5q-4 -18 -18.5 -31t-33.5 -13z" />
<glyph unicode="&#xfd;" horiz-adv-x="453" d="M23 -226q-19 0 -47 10l33 61q11 -9 29 -9q50 0 98 74l66 103q-14 79 -42 243.5t-41 243.5h69l62 -397l1 -12q3 3 5 8l243 401h67l-365 -593q-46 -72 -83 -100q-43 -33 -95 -33zM280 558h-65l161 173h72z" />
<glyph unicode="&#xfe;" horiz-adv-x="471" d="M181 425q83 87 191 87q71 0 111.5 -37.5t47.5 -105.5q11 -105 -47 -214q-56 -105 -147 -146q-45 -21 -97 -21q-97 0 -136 74l-61 -283h-61l202 952h62zM256 46q69 0 127 62q55 59 77 159q16 81 -10 134t-96 53q-56 0 -104 -28q-43 -25 -86 -84l-45 -211q25 -85 137 -85z " />
<glyph unicode="&#xff;" horiz-adv-x="450" d="M10 -226q-19 0 -47 10l34 61q9 -9 28 -9q51 0 99 74l65 103q-13 79 -41 243.5t-42 243.5h69l63 -397l1 -12l4 8l243 401h68l-366 -593q-31 -49 -59 -79.5t-69 -45.5q-20 -8 -50 -8zM422 558q-18 0 -28 12.5t-6 31.5q4 17 18 29.5t33 12.5q18 0 29 -11.5t7 -30.5 q-4 -18 -19 -31t-34 -13zM265 558q-17 0 -27.5 12.5t-6.5 31.5q4 17 18.5 29.5t33.5 12.5q18 0 28.5 -11.5t6.5 -30.5q-4 -18 -19 -31t-34 -13z" />
<glyph unicode="&#x178;" horiz-adv-x="540" d="M319 335q23 32 117.5 163.5t144.5 201.5h72l-319 -434l-56 -266h-65l56 265q-20 72 -61 217.5t-61 217.5h74l91 -333q1 -4 3.5 -15t3.5 -17zM446 727q-18 0 -28 12.5t-6 31.5q4 17 18 29.5t33 12.5q18 0 29.5 -11.5t7.5 -30.5q-4 -18 -19.5 -31t-34.5 -13zM290 727 q-18 0 -28.5 12.5t-6.5 31.5q4 17 18.5 29.5t33.5 12.5q18 0 28.5 -11.5t6.5 -30.5q-4 -18 -18.5 -31t-33.5 -13z" />
<glyph unicode="&#x2c6;" horiz-adv-x="263" d="M270 663q-43 -48 -93 -105h-61l154 177h31l77 -177h-63z" />
<glyph unicode="&#x2dc;" horiz-adv-x="356" d="M357 564q-33 0 -69 38q-22 23 -45 23q-38 0 -53 -67h-52q18 84 79 114q20 9 39 9q38 0 74 -36q17 -17 22 -20q10 -6 21 -6q16 0 29 17q13 18 21 52h54q-19 -88 -80 -115q-19 -9 -40 -9z" />
<glyph unicode="&#x2000;" horiz-adv-x="467" />
<glyph unicode="&#x2001;" horiz-adv-x="935" />
<glyph unicode="&#x2002;" horiz-adv-x="467" />
<glyph unicode="&#x2003;" horiz-adv-x="935" />
<glyph unicode="&#x2004;" horiz-adv-x="311" />
<glyph unicode="&#x2005;" horiz-adv-x="233" />
<glyph unicode="&#x2006;" horiz-adv-x="155" />
<glyph unicode="&#x2007;" horiz-adv-x="155" />
<glyph unicode="&#x2008;" horiz-adv-x="116" />
<glyph unicode="&#x2009;" horiz-adv-x="187" />
<glyph unicode="&#x200a;" horiz-adv-x="51" />
<glyph unicode="&#x2010;" horiz-adv-x="345" d="M86 261l14 61h275l-13 -61h-276z" />
<glyph unicode="&#x2011;" horiz-adv-x="345" d="M86 261l14 61h275l-13 -61h-276z" />
<glyph unicode="&#x2012;" horiz-adv-x="345" d="M86 261l14 61h275l-13 -61h-276z" />
<glyph unicode="&#x2013;" horiz-adv-x="569" d="M84 261l14 61h500l-14 -61h-500z" />
<glyph unicode="&#x2014;" horiz-adv-x="1069" d="M89 261l14 61h980l-13 -61h-981z" />
<glyph unicode="&#x2018;" horiz-adv-x="127" d="M162 463h-70l128 230h54z" />
<glyph unicode="&#x2019;" horiz-adv-x="127" d="M150 463h-53l112 230h69z" />
<glyph unicode="&#x201a;" horiz-adv-x="127" d="M29 -106h-53l112 228h69z" />
<glyph unicode="&#x201c;" horiz-adv-x="271" d="M291 463h-70l129 230h53zM175 463h-70l127 230h55z" />
<glyph unicode="&#x201d;" horiz-adv-x="271" d="M279 463h-54l111 230h71zM162 463h-53l113 230h69z" />
<glyph unicode="&#x201e;" horiz-adv-x="271" d="M158 -107h-54l111 229h71zM41 -107h-53l112 229h69z" />
<glyph unicode="&#x2022;" horiz-adv-x="283" d="M188 224q-39 0 -64.5 20.5t-34.5 53.5q-12 48 20 93q30 45 80 66q24 10 50 10q38 0 63 -21t33 -54q9 -40 -8 -75t-46 -58q-45 -35 -93 -35z" />
<glyph unicode="&#x2026;" horiz-adv-x="593" d="M504 -7q-20 0 -30 13.5t-6 34.5q4 19 19.5 32.5t36.5 13.5q20 0 31.5 -13t7.5 -33t-20.5 -34t-38.5 -14zM288 -7q-20 0 -30.5 13.5t-6.5 34.5q4 19 20 32.5t37 13.5q20 0 31 -13t7 -33t-20 -34t-38 -14zM73 -7q-20 0 -30 13.5t-6 34.5q4 19 19.5 32.5t36.5 13.5 q20 0 31 -13t7 -33t-20 -34t-38 -14z" />
<glyph unicode="&#x202f;" horiz-adv-x="187" />
<glyph unicode="&#x2039;" horiz-adv-x="218" d="M153 94l-103 168l175 171h77l-177 -171q20 -30 55.5 -88.5t48.5 -79.5h-76z" />
<glyph unicode="&#x203a;" horiz-adv-x="218" d="M103 94h-80l179 172q-28 47 -106 167h78l102 -167z" />
<glyph unicode="&#x205f;" horiz-adv-x="233" />
<glyph unicode="&#x20ac;" horiz-adv-x="462" d="M300 -12q-133 0 -166 141q-11 48 -8 106h-69l12 58h63q1 7 4 21t4 18q10 46 12 54h-64l13 58h71q47 122 128 192q79 68 171 68q61 0 114 -28l-15 -71q-61 41 -115 41q-62 0 -121 -53q-58 -51 -98 -149h253l-12 -58h-262q-2 -7 -7.5 -32.5t-8.5 -38.5q0 -2 -3 -22h261 l-12 -58h-254q-7 -138 72 -177q24 -12 55 -12q55 0 144 53l-15 -70q-79 -41 -147 -41z" />
<glyph unicode="&#x2122;" horiz-adv-x="695" d="M576 449q120 188 156 244h67l-70 -330h-58l46 215q-23 -35 -70 -107.5t-69 -107.5h-44l-43 212l-46 -212h-57l70 330h70zM315 637l-58 -274h-57l58 274h-104l12 56h266l-12 -56h-105z" />
<glyph unicode="&#x25fc;" horiz-adv-x="500" d="M0 500h500v-500h-500v500z" />
<glyph unicode="&#xfb03;" horiz-adv-x="707" d="M403 739q34 0 76 -24l-38 -53q-22 19 -52 19q-79 0 -103 -111l-15 -70h204l15 74q26 119 120 154q30 11 58 11q35 0 77 -24l-38 -53q-22 19 -53 19q-78 0 -102 -111l-15 -70h239l-106 -500h-62l94 442h-178l-93 -442h-62l93 442h-203l-94 -442h-62l94 442h-87l13 58h86 l16 74q26 119 119 154q30 11 59 11z" />
<glyph unicode="&#xfb04;" horiz-adv-x="833" d="M746 633q-7 48 -88 48q-79 0 -103 -111l-15 -70h127l-12 -58h-127l-94 -442h-62l94 442h-204l-94 -442h-62l94 442h-87l12 58h87l16 74q26 119 120 154q30 11 58 11q34 0 76 -24l-38 -53q-20 19 -52 19q-79 0 -103 -111l-15 -70h204l16 74q26 119 120 154q30 11 58 11 q143 0 137 -104l-107 -502q-11 -41 -1.5 -63t43.5 -22q26 0 72 24l-13 -62q-40 -19 -78 -19q-116 0 -86 137z" />
</font>
</defs>
</svg>
